{"title":"The.American.R5.LiNE.H264.Feel-Free","uid":5915519,"size":735195754,"categoryP":"video","categoryS":"movies","magnet":"?xt=urn:btih:439c68dc11faf4126acbb5bc46b298064f720ce5&amp;dn=The.American.R5.LiNE.H264.Feel-Free&amp;tr=udp%3A%2F%2Ftracker.openbittorrent.com%3A80&amp;tr=udp%3A%2F%2Fopen.demonii.com%3A1337&amp;tr=udp%3A%2F%2Ftracker.coppersurfer.tk%3A6969&amp;tr=udp%3A%2F%2Fexodus.desync.com%3A6969","seeders":0,"leechers":0,"uploader":"deffjam555","files":9,"time":1288208153,"description":"cover &lt;a href=&quot;\nhttp://www.radiofunn.ro/wp-content/uploads/2010/09/The-American-2010.jpg&quot; rel=&quot;nofollow&quot; target=&quot;_NEW&quot;&gt;\nhttp://www.radiofunn.ro/wp-content/uploads/2010/09/The-American-2010.jpg&lt;/a&gt;\nGenre:Drama | Thriller\nLanguage: English\nIMDB:http://www.imdb.com/title/tt1440728/\nSource:DVD5 RUS/Audio.TWiZTED.Thx\n\nGeneral\nComplete name :The.American.R5.LiNE.H264.Feel-Free.mp4\nFormat : MPEG-4\nFormat profile : Base Media\nCodec ID : isom\nFile size : 701 MiB\nDuration : 1h 40mn\nOverall bit rate : 974 Kbps\nVideo #2\nCodec ID : avc1\nCodec ID/Info : Advanced Video Coding\nDuration : 1h 40mn\nBit rate mode : Variable\nBit rate : 809 Kbps\nWidth : 720 pixels\nHeight : 304 pixels\nDisplay aspect ratio : 2.35:1\nFrame rate mode : Constant\nFrame rate : 23.976 fps\nOriginal frame rate : 23.000 fps\nResolution : 24 bits\nColorimetry : 4:2:0\nScan type : Progressive\nBits/(Pixel*Frame) : 0.154\nStream size : 582 MiB (83%)\nAudio #1\nID : 1\nFormat : AAC\nFormat/Info : Advanced Audio Codec\nFormat version : Version 4\nFormat profile : LC\nFormat settings, SBR : No\nCodec ID : 40\nDuration : 1h 40mn\nBit rate mode : Constant\nBit rate : 160 Kbps\nChannel(s) : 2 channels\nChannel positions : L R\nSampling rate : 48.0 KHz\nResolution : 16 bits\nStream size : 115 MiB (16%)\n\nPlot\nAn assassin hides out in Italy for one last assignment.\n\nscreens\n &lt;a href=&quot;\nhttp://img233.imageshack.us/img233/4278/theamericanr5lineh264fe.jpg&quot; rel=&quot;nofollow&quot; target=&quot;_NEW&quot;&gt;\nhttp://img233.imageshack.us/img233/4278/theamericanr5lineh264fe.jpg&lt;/a&gt; &lt;a href=&quot;\nhttp://img831.imageshack.us/img831/4278/theamericanr5lineh264fe.jpg&quot; rel=&quot;nofollow&quot; target=&quot;_NEW&quot;&gt;\nhttp://img831.imageshack.us/img831/4278/theamericanr5lineh264fe.jpg&lt;/a&gt; &lt;a href=&quot;\nhttp://img844.imageshack.us/img844/4278/theamericanr5lineh264fe.jpg&quot; rel=&quot;nofollow&quot; target=&quot;_NEW&quot;&gt;\nhttp://img844.imageshack.us/img844/4278/theamericanr5lineh264fe.jpg&lt;/a&gt; &lt;a href=&quot;\nhttp://img185.imageshack.us/img185/4278/theamericanr5lineh264fe.jpg&quot; rel=&quot;nofollow&quot; target=&quot;_NEW&quot;&gt;\nhttp://img185.imageshack.us/img185/4278/theamericanr5lineh264fe.jpg&lt;/a&gt;","torrent":{"xt":"urn:btih:439c68dc11faf4126acbb5bc46b298064f720ce5","amp;dn":"The.American.R5.LiNE.H264.Feel-Free","amp;tr":["udp%3A%2F%2Ftracker.openbittorrent.com%3A80","udp%3A%2F%2Fopen.demonii.com%3A1337","udp%3A%2F%2Ftracker.coppersurfer.tk%3A6969","udp%3A%2F%2Fexodus.desync.com%3A6969"],"infoHash":"439c68dc11faf4126acbb5bc46b298064f720ce5","infoHashBuffer":{"type":"Buffer","data":[67,156,104,220,17,250,244,18,106,203,181,188,70,178,152,6,79,114,12,229]},"announce":[],"urlList":[]}}